# xmcd
# 
# Track frame offsets:
#     182
#     13367
#     42770
#     67230
#     80690
#     95025
#     116607
#     158550
#     172525
#     201365
#     206052
#     225462
# 
# Disc length: 3172
# 
# Revision: 5
# Processed by: cddbd v1.5.2PL0 Copyright (c) Steve Scherf et al.
# Submitted via: fre:ac v1.0.31
# 
DISCID=9f0c620c
DTITLE=Robert Cray - Shoulda Been Home
DYEAR=2001
DGENRE=Blues
TTITLE0=Baby's Arms
TTITLE1=Already Gone
TTITLE2=Anytime
TTITLE3=Love Sickness
TTITLE4=I'm Afraid
TTITLE5=No One Special
TTITLE6=Out Of Eden
TTITLE7=Cry For Me Baby
TTITLE8=Far Away
TTITLE9=Renew Blues
TTITLE10=Help Me Forget
TTITLE11=The 12 Year Old Boy
EXTD=YEAR: 2001 ID3G:   0
EXTT0=
EXTT1=
EXTT2=
EXTT3=
EXTT4=
EXTT5=
EXTT6=
EXTT7=
EXTT8=
EXTT9=
EXTT10=
EXTT11=
PLAYORDER=
